<svg height='100px' width='100px'  fill="#000000" xmlns="http://www.w3.org/2000/svg" xmlns:xlink="http://www.w3.org/1999/xlink" version="1.1" x="0px" y="0px" viewBox="0 0 500 500" style="enable-background:new 0 0 500 500;" xml:space="preserve"><g><path d="M299.1,265.1c-8.3-5.9-14.1-15.1-24.2-18.4c-9.3-3-19.6,0.7-24.9,8.8c-5.3-8.2-15.6-11.8-24.9-8.8   c-10,3.3-15.9,12.5-24.2,18.4c-6.5,4.6-14.9,7.3-22.8,6.5c-1.8-0.2-7.7-1.1-10.1-2.7c0.2,3,5.8,17.8,19,25.9c9.5,5.8,21,7.2,31.8,5   c10.8-2.3,24.7-10.3,31.2-20.9c6.5,10.6,20.4,18.6,31.2,20.9c10.8,2.3,22.2,0.9,31.8-5c13.2-8.1,18.9-22.9,19-25.9   c-2.4,1.7-8.2,2.6-10.1,2.7C314,272.4,305.5,269.7,299.1,265.1z"></path><path d="M364.9,269.2v-5.2c23-1.8,41.2-21.1,41.2-44.6s-18.2-42.8-41.2-44.6v-27.1c0-62.9-51.2-114.1-114.1-114.1h-0.6   c-63.5,0-115.2,51.7-115.2,115.2v26c-23,1.8-41.2,21.1-41.2,44.6s18.2,42.8,41.2,44.6v5.2c0,19.9,8.8,38.7,24.1,51.5l22.6,18.8   l-32.7,22c-16.7,11.3-26.7,30-26.7,50.2v0.8c0,28.1,19.1,52.3,46.3,58.9c26.2,6.3,53.2,9.5,80.2,9.5c25.6,0,51.2-2.9,76.1-8.6   l5.5-1.3c27.7-6.3,47-30.6,47-59c0-20.4-10.2-39.3-27.3-50.6L317.5,340l23.2-19.2C356.1,308,364.9,289.2,364.9,269.2z M364.9,195   c12,1.7,21.2,12,21.2,24.5c0,12.5-9.3,22.8-21.2,24.5V195z M135.1,244c-12-1.7-21.2-12-21.2-24.5c0-12.5,9.3-22.8,21.2-24.5V244z    M155.1,148.9c0-52.5,42.7-95.2,95.2-95.2h0.6c51.9,0,94.1,42.2,94.1,94.1V167c-4.5-3.1-9.9-5-15.7-5h-50.3   c-10.2,0-19.1,5.6-23.7,13.8c-3.3-1.1-6.9-1.1-10.3,0c-4.7-8.2-13.6-13.8-23.8-13.8h-50.3c-5.9,0-11.3,1.9-15.7,5V148.9z M292,182   l-16,14.5c-1,0.9-2.2,1.3-3.4,1.3c-1.4,0-2.7-0.6-3.7-1.6c-1.9-2-1.7-5.2,0.3-7.1l16-14.5c2-1.9,5.2-1.7,7.1,0.3   C294.2,176.9,294.1,180.1,292,182z M187.4,182l-16,14.5c-1,0.9-2.2,1.3-3.4,1.3c-1.4,0-2.7-0.6-3.7-1.6c-1.9-2-1.7-5.2,0.3-7.1   l16-14.5c2-1.9,5.2-1.7,7.1,0.3C189.6,176.9,189.4,180.1,187.4,182z M327.9,305.4l-33,27.4c-6.6,5.5-15,8.5-23.6,8.5h-42.8   c-8.6,0-17-3-23.7-8.6L172,305.4c-10.8-9-16.9-22.1-16.9-36.1v-13.7c0.1-0.6,0.1-1.2,0.1-1.8c-0.1-1.5-0.1-2.8-0.1-4.1v-27.9   c9.2,11.5,23.2,19.1,38.9,19.7c0.7,0,1.3,0,2,0c13.6,0,26.5-5.2,36.3-14.7c9.9-9.6,15.6-22.3,16-36c0.1-0.1,0.3-0.2,0.4-0.4   c0.7-0.7,1.8-0.7,2.5,0c0.1,0.1,0.3,0.2,0.4,0.3c0,0.2,0,0.4,0,0.5c1.1,27.1,23.3,49.1,50.4,50.1c0.7,0,1.3,0,2,0   c13.6,0,26.5-5.2,36.3-14.7c1.6-1.6,3.1-3.2,4.5-5v27.8c0,1.2,0,2.6-0.1,4.1c0,0.6,0,1.2,0.1,1.8v13.7   C344.9,283.3,338.7,296.4,327.9,305.4z"></path></g></svg>