<svg height='100px' width='100px'  fill="#000000" xmlns="http://www.w3.org/2000/svg" xmlns:xlink="http://www.w3.org/1999/xlink" version="1.1" x="0px" y="0px" viewBox="0 0 500 500" style="enable-background:new 0 0 500 500;" xml:space="preserve"><g><path d="M350.9,363.6l-8.1-5.5c-21.5-14.5-50.5-10.6-67.5,9L250,396.4l-25.1-29c-16.8-19.4-45.6-23.4-67-9.3l-8.2,5.4l0,0   c-17.1,11.2-27.3,30.1-27.3,50.6c0,28.4,19.3,52.7,47,59l5.5,1.3c24.9,5.7,50.5,8.6,76.1,8.6c27,0,54-3.2,80.2-9.5   c27.3-6.6,46.3-30.8,46.3-58.9v-0.8C377.6,393.7,367.6,374.9,350.9,363.6z M179.4,455l-5.5-1.3c-18.6-4.2-31.5-20.5-31.5-39.5   c0-13.7,6.8-26.3,18.3-33.9c0,0,0,0,0,0l8.2-5.4c5.3-3.5,11.2-5.1,17.2-5.1c8.8,0,17.6,3.7,23.7,10.8l14.9,17.2   c0.1,0.1,0.1,0.2,0.2,0.3l54.7,63.8C246.1,464.7,212.2,462.5,179.4,455z M357.6,414.7c0,18.8-12.8,35-31,39.4   c-7.7,1.9-15.4,3.4-23.2,4.7l-40.3-47l27.3-31.6c10.4-12,28.1-14.3,41.2-5.5l8.1,5.5c11.2,7.5,17.9,20.1,17.9,33.6V414.7z"></path><path d="M275,297.6c-0.8-0.6-1.9-1-3.1-0.9c0,0,0,0-0.1,0l-0.9,0c-1-0.3-2.4-1.5-3.6-2.5c-1.7-1.5-3.5-3.1-6-3.9   c-3.2-1.1-7-0.8-11.4,0.7c-4.3-1.5-8.2-1.7-11.4-0.7c-0.9,0.3-1.7,0.7-2.6,1.3c0,0,0,0,0,0c-0.5,0.3-0.9,0.6-1.4,1l-0.1,0.1   c-0.2,0.2-0.4,0.3-0.6,0.5l-0.1,0.1c-0.2,0.1-0.3,0.3-0.5,0.4l-0.7,0.6c-0.7,0.6-1.3,1.1-1.9,1.6h0l-0.7,0.5c0,0-0.1,0.1-0.1,0.1   l-0.1,0c-0.1,0.1-0.2,0.1-0.4,0.2c0,0,0,0,0,0c0,0-0.1,0-0.1,0.1c0,0,0,0,0,0c0,0,0,0,0,0c0,0-0.1,0-0.1,0l-0.1,0l-0.7,0l0,0   c-0.6,0-1.3,0.1-1.9,0.3c-1.2,0.4-2.1,1.2-2.5,2.1c0,0,0,0.1,0,0.1c0,0,0,0,0,0.1c-0.4,1-0.2,2.1,0.6,3c0.5,0.6,1.2,1.1,2,1.3   c0.1,0,0.2,0.1,0.2,0.1c0,0,0,0,0,0l0.1,0.1c0,0,0,0,0,0l0.5,0.4c0,0,0,0,0,0c0,0,0.1,0.1,0.1,0.1c0,0,0,0,0,0c0,0,0,0,0,0   c0,0,0.1,0.1,0.1,0.1c0,0,0,0,0,0c0.2,0.2,0.3,0.3,0.5,0.5l0.1,0.1c0.2,0.2,0.4,0.5,0.6,0.8c0,0,0,0,0,0.1c0.1,0.2,0.3,0.4,0.4,0.5   c0.1,0.2,0.2,0.3,0.4,0.5c0.2,0.2,0.3,0.5,0.5,0.7l0.1,0.2c0.1,0.2,0.2,0.3,0.4,0.5l0.2,0.2c0.1,0.2,0.3,0.3,0.4,0.5c0,0,0,0,0,0   l0.1,0.1c0.2,0.2,0.4,0.4,0.6,0.6l0,0c0.2,0.2,0.3,0.4,0.5,0.5l0.1,0.1c0.2,0.2,0.3,0.3,0.5,0.5l0.1,0.1c0.4,0.4,0.9,0.7,1.3,1.1   c0,0,0,0,0,0c0.2,0.2,0.4,0.3,0.6,0.5l0.1,0.1c0.2,0.1,0.4,0.3,0.7,0.4c0,0,0,0,0.1,0c0.5,0.3,1,0.6,1.6,0.9c0,0,0,0,0,0   c0.3,0.1,0.5,0.2,0.8,0.4c0,0,0,0,0,0c0.8,0.4,1.7,0.7,2.6,0.9c0,0,0,0,0,0c2.6,0.7,5.5,1.1,9.1,1.1c10,0,15.9-2.8,20.5-9.5   c1.5-2.2,2.5-3,3-3.3c0.5-0.1,0.9-0.3,1.3-0.6c1-0.6,1.7-1.6,1.7-2.7C276.5,299.3,276,298.3,275,297.6z M226,303.4   c-0.1,0-0.2-0.1-0.2-0.1C225.9,303.4,226,303.4,226,303.4L226,303.4z"></path><path d="M364.9,192.6v-15.2c0-13.5-2.3-26.4-6.6-38.4c0.7,0,1.5,0.1,2.2,0.1c22.9,0,41.5-18.6,41.5-41.5S383.4,56,360.5,56   c-19.2,0-35.4,13.1-40.1,30.9C301.1,71.9,276.8,63,250.6,63h0c-26.7,0-51.3,9.1-70.8,24.3c-4.5-18-20.9-31.3-40.2-31.3   C116.6,56,98,74.6,98,97.5s18.6,41.5,41.5,41.5c0.9,0,1.7,0,2.6-0.1c-4.5,12.3-7,25.7-7,39.6v14.1c-23,1.8-41.2,21.1-41.2,44.6   c0,24.7,20.1,44.7,44.7,44.7h4.7c16.9,42.4,58.4,72.4,106.8,72.4s89.8-30,106.8-72.4h4.7c24.7,0,44.7-20.1,44.7-44.7   C406.2,213.7,388,194.4,364.9,192.6z M135.1,239.4v22.2c-12-1.7-21.2-12-21.2-24.5s9.3-22.8,21.2-24.5V239.4z M337.1,153.5   c0.6,2.6,1,5.2,1.4,7.9c0.3,2.7-1.6,5.2-4.3,5.6c-0.2,0-0.4,0-0.6,0c-2.5,0-4.6-1.9-5-4.4c-0.3-2.3-0.7-4.7-1.2-7   c-0.6-2.7,1.1-5.4,3.8-6C333.8,149.1,336.5,150.8,337.1,153.5z M277.5,89.3c1.2-2.5,4.2-3.5,6.7-2.3c1.2,0.6,29.9,15.1,45.4,45.6   c1.2,2.5,0.3,5.5-2.2,6.7c-0.7,0.4-1.5,0.5-2.3,0.5c-1.8,0-3.6-1-4.5-2.7C306.8,109.7,280,96.1,279.8,96   C277.3,94.7,276.3,91.8,277.5,89.3z M164.6,242.7l16-14.5c2-1.9,5.2-1.7,7.1,0.3c1.9,2,1.7,5.2-0.3,7.1l-16,14.5   c-1,0.9-2.2,1.3-3.4,1.3c-1.4,0-2.7-0.6-3.7-1.6C162.4,247.7,162.6,244.6,164.6,242.7z M250,334.3c-35,0-65.6-19.1-82.1-47.3   c7.6,4.9,16.5,7.8,26.1,8.2c0.7,0,1.3,0,2,0c13.6,0,26.5-5.2,36.3-14.7c9.9-9.6,15.6-22.3,16-36c0.1-0.1,0.3-0.2,0.4-0.4   c0.7-0.7,1.8-0.7,2.5,0c0.1,0.1,0.3,0.2,0.4,0.3c0,0.2,0,0.4,0,0.5c1.1,27.1,23.3,49.1,50.4,50.1c0.7,0,1.3,0,2,0   c10,0,19.7-2.8,28-8.1C315.5,315.3,284.9,334.3,250,334.3z M269.3,242.7l16-14.5c2-1.9,5.2-1.7,7.1,0.3c1.9,2,1.7,5.2-0.3,7.1   l-16,14.5c-1,0.9-2.2,1.3-3.4,1.3c-1.4,0-2.7-0.6-3.7-1.6C267.1,247.7,267.3,244.6,269.3,242.7z M344.9,220.6   c-4.5-3.1-9.9-5-15.7-5h-50.3c-10.2,0-19.1,5.6-23.7,13.8c-3.3-1.1-6.9-1.1-10.3,0c-4.7-8.2-13.6-13.8-23.8-13.8h-50.3   c-5.9,0-11.3,1.9-15.7,5V210h39c4.9,0,9.1-3.6,9.9-8.5c1-6.2,2.7-13,4.5-19.2c2.7,6.7,5.5,14,7.6,20.7c1.3,4.2,5.2,7.1,9.6,7.1   h119.3V220.6z M364.9,261.6v-22.2v-26.7c12,1.7,21.2,12,21.2,24.5S376.9,259.9,364.9,261.6z"></path></g></svg>