<svg height='100px' width='100px'  fill="#000000" xmlns="http://www.w3.org/2000/svg" data-name="Слой 1" viewBox="0 0 251.04086 280.37295" x="0px" y="0px"><title>15</title><path d="M351.55448,282.92512h-107.809a4.61882,4.61882,0,0,0-4.56624,5.32265c3.15849,20.52086,9.62127,31.54113,19.75836,33.68892a16.10064,16.10064,0,0,0,3.342.34413c13.96939,0,28.48809-17.23446,35.37038-26.62847,6.88153,9.394,21.39986,26.62847,35.37039,26.62847a16.19373,16.19373,0,0,0,3.342-.34413c10.1371-2.14779,16.59988-13.16806,19.75837-33.68892a4.61883,4.61883,0,0,0-4.56624-5.32265Z" transform="translate(-172.12956 -144.31352)"></path><path d="M413.92983,247.50182H373.11612v-73.9259a29.29539,29.29539,0,0,0-29.26239-29.2624H248.3658a29.29564,29.29564,0,0,0-29.26239,29.2624v73.9259H181.37016a9.24079,9.24079,0,0,0,0,18.48157h41.0779a206.88977,206.88977,0,0,0-1.80442,33.88307c0,39.637,14.91461,70.23256,39.43222,85.25528,5.86969,21.645,37.72336,39.38045,38.99978,39.55861a.03715.03715,0,0,0,.02017.00609.02658.02658,0,0,0,.016-.00457c1.42869-.153,35.32318-19.1154,39.49123-41.76806,22.49164-15.69006,36.04038-45.23986,36.05332-82.99786a191.57229,191.57229,0,0,0-2.01075-33.93256h41.28423a9.24079,9.24079,0,0,0,0-18.48157ZM310.63723,359.93147H287.53536a4.62049,4.62049,0,0,1,0-9.241h23.10187a4.62049,4.62049,0,0,1,0,9.241Zm54.78005-60.16589-.00153.10088c0,27.3925-8.5489,54.92318-26.88543,71.27752-2.76106-22.05538-17.96842-38.93506-39.44441-38.93506-22.18709,0-37.718,18.00078-39.70935,41.12777-20.13677-16.00868-29.49271-44.84281-29.49385-73.56654a194.165,194.165,0,0,1,1.892-33.78676H363.37646A181.36862,181.36862,0,0,1,365.41728,299.76558Z" transform="translate(-172.12956 -144.31352)"></path></svg>