<?xml version="1.0" encoding="UTF-8"?>
<svg width="100pt" height="100pt" version="1.1" viewBox="0 0 100 100" xmlns="http://www.w3.org/2000/svg">
 <path d="m6.0938 15.609h87.809c3.3516 0 6.0938 2.7422 6.0938 6.0938v56.594c0 3.3516-2.7422 6.0938-6.0938 6.0938h-87.809c-3.3516 0-6.0938-2.7422-6.0938-6.0938v-56.594c0-3.3516 2.7422-6.0938 6.0938-6.0938zm68.984 43.926c1.582 0 3.0547 0.47266 4.2852 1.2852 1.2305-0.8125 2.7031-1.2852 4.2852-1.2852 4.2969 0 7.7812 3.4844 7.7812 7.7812s-3.4844 7.7812-7.7812 7.7812c-1.582 0-3.0547-0.47266-4.2852-1.2852-1.2305 0.8125-2.6992 1.2852-4.2852 1.2852-4.2969 0-7.7812-3.4844-7.7812-7.7812s3.4844-7.7812 7.7812-7.7812zm-64.629-3.168h27.391v6.5898h-27.391zm0 12.066h42.461v6.5898h-42.461z" fill-rule="evenodd"/>
</svg>
