<?xml version="1.0" encoding="UTF-8"?>
<svg width="100pt" height="100pt" version="1.1" viewBox="0 0 100 100" xmlns="http://www.w3.org/2000/svg">
 <path d="m50 43.57 24.059-24.059c1.7734-1.7734 4.6523-1.7734 6.4297 0 1.7734 1.7773 1.7734 4.6562 0 6.4297l-24.059 24.059 24.059 24.059c1.7734 1.7734 1.7734 4.6523 0 6.4297-1.7773 1.7734-4.6562 1.7734-6.4297 0l-24.059-24.059-24.059 24.059c-1.7734 1.7734-4.6523 1.7734-6.4297 0-1.7734-1.7773-1.7734-4.6562 0-6.4297l24.059-24.059-24.059-24.059c-1.7734-1.7734-1.7734-4.6523 0-6.4297 1.7773-1.7734 4.6562-1.7734 6.4297 0z"/>
</svg>
